<svg xmlns="http://www.w3.org/2000/svg" xmlns:xlink="http://www.w3.org/1999/xlink" width="500" zoomAndPan="magnify" viewBox="0 0 375 374.999991" height="500" preserveAspectRatio="xMidYMid meet" version="1.0"><defs><g/></defs><g fill="#bfd7ed" fill-opacity="1"><g transform="translate(99.972329, 197.843966)"><g><path d="M 4.210938 -0.679688 C 5.070312 -0.820312 5.582031 -1.621094 5.441406 -2.480469 C 4.566406 -6.421875 3.964844 -13.125 3.691406 -20.765625 C 10.253906 -24.226562 14.371094 -26.011719 19.613281 -27.742188 L 20.128906 -24.542969 C 20.949219 -19.472656 21.714844 -14.230469 22.324219 -8.96875 C 22.488281 -7.953125 23.046875 -7.484375 24.070312 -7.570312 C 24.929688 -7.707031 25.609375 -8.457031 25.46875 -9.316406 C 24.886719 -14.421875 24.082031 -19.898438 23.214844 -25.28125 L 22.660156 -28.710938 L 26.40625 -29.796875 C 27.25 -30.015625 27.632812 -30.636719 27.492188 -31.492188 L 27.453125 -31.726562 C 27.238281 -32.574219 26.527344 -33.019531 25.667969 -32.878906 L 25.511719 -32.855469 L 22.078125 -31.820312 C 19.589844 -45.746094 17.53125 -57.5 10.847656 -58.742188 C 10.027344 -58.851562 9.378906 -58.90625 8.832031 -58.816406 C 0.0195312 -57.394531 -0.0390625 -33.453125 0.414062 -22.71875 C -0.824219 -21.957031 -2.230469 -21.25 -3.78125 -20.441406 C -4.445312 -20.09375 -4.746094 -19.484375 -4.632812 -18.78125 C -4.597656 -18.546875 -4.570312 -18.390625 -4.480469 -18.328125 C -4.132812 -17.664062 -3.523438 -17.359375 -2.820312 -17.472656 L -2.585938 -17.511719 C -2.277344 -17.5625 -1.765625 -17.882812 0.578125 -19.222656 C 0.878906 -11.910156 1.652344 -5.628906 2.335938 -1.898438 C 2.472656 -1.039062 3.277344 -0.527344 4.132812 -0.667969 Z M 3.605469 -24.273438 C 3.484375 -30.980469 3.34375 -54.648438 9.425781 -55.632812 C 11.222656 -55.921875 12.835938 -54.339844 14.1875 -51.4375 C 15.535156 -48.535156 17.210938 -40.640625 19.019531 -30.925781 C 13.542969 -29.160156 9.53125 -27.234375 3.605469 -24.273438 Z M 3.605469 -24.273438 "/></g></g></g><g fill="#bfd7ed" fill-opacity="1"><g transform="translate(133.282237, 192.465592)"><g><path d="M -0.128906 -10.707031 C 0.574219 -10.820312 0.992188 -11.207031 1.113281 -11.945312 C 2.6875 -20.523438 4.75 -29.582031 6.542969 -29.871094 C 6.855469 -29.921875 7.125 -29.726562 7.449219 -29.21875 C 7.796875 -28.554688 8.101562 -27.644531 8.292969 -26.472656 C 8.757812 -23.585938 8.804688 -19.832031 12.5 -18.265625 C 13.445312 -17.859375 14.433594 -17.699219 15.601562 -17.886719 C 19.738281 -18.554688 23.058594 -23.253906 24.78125 -27.453125 C 24.902344 -27.714844 24.941406 -27.960938 24.890625 -28.273438 C 24.789062 -28.894531 24.480469 -29.328125 23.898438 -29.472656 C 23.636719 -29.589844 23.3125 -29.617188 23 -29.566406 C 22.453125 -29.480469 22.023438 -29.171875 21.878906 -28.585938 C 20.8125 -25.773438 17.984375 -21.472656 15.253906 -21.03125 C 14.707031 -20.945312 14.214844 -21.023438 13.785156 -21.195312 C 11.804688 -22.078125 11.816406 -24.480469 11.398438 -27.054688 C 11.1875 -28.378906 10.882812 -29.773438 10.132812 -30.933594 C 9.140625 -32.613281 7.507812 -33.308594 5.871094 -33.046875 C 2.59375 -32.515625 1.46875 -28.09375 0.234375 -22.851562 C 0.0546875 -25.941406 -0.128906 -28.554688 -0.167969 -30.789062 C -0.0742188 -31.683594 -0.914062 -32.429688 -1.785156 -32.371094 C -2.679688 -32.464844 -3.347656 -31.636719 -3.285156 -30.765625 C -3.175781 -24.621094 -2.523438 -17.121094 -1.953125 -12.089844 C -1.890625 -11.222656 -1.0625 -10.554688 -0.128906 -10.707031 Z M -0.128906 -10.707031 "/></g></g></g><g fill="#bfd7ed" fill-opacity="1"><g transform="translate(158.167152, 188.447558)"><g><path d="M -0.128906 -10.707031 C 0.574219 -10.820312 0.992188 -11.207031 1.113281 -11.945312 C 2.6875 -20.523438 4.75 -29.582031 6.542969 -29.871094 C 6.855469 -29.921875 7.125 -29.726562 7.449219 -29.21875 C 7.796875 -28.554688 8.101562 -27.644531 8.292969 -26.472656 C 8.757812 -23.585938 8.804688 -19.832031 12.5 -18.265625 C 13.445312 -17.859375 14.433594 -17.699219 15.601562 -17.886719 C 19.738281 -18.554688 23.058594 -23.253906 24.78125 -27.453125 C 24.902344 -27.714844 24.941406 -27.960938 24.890625 -28.273438 C 24.789062 -28.894531 24.480469 -29.328125 23.898438 -29.472656 C 23.636719 -29.589844 23.3125 -29.617188 23 -29.566406 C 22.453125 -29.480469 22.023438 -29.171875 21.878906 -28.585938 C 20.8125 -25.773438 17.984375 -21.472656 15.253906 -21.03125 C 14.707031 -20.945312 14.214844 -21.023438 13.785156 -21.195312 C 11.804688 -22.078125 11.816406 -24.480469 11.398438 -27.054688 C 11.1875 -28.378906 10.882812 -29.773438 10.132812 -30.933594 C 9.140625 -32.613281 7.507812 -33.308594 5.871094 -33.046875 C 2.59375 -32.515625 1.46875 -28.09375 0.234375 -22.851562 C 0.0546875 -25.941406 -0.128906 -28.554688 -0.167969 -30.789062 C -0.0742188 -31.683594 -0.914062 -32.429688 -1.785156 -32.371094 C -2.679688 -32.464844 -3.347656 -31.636719 -3.285156 -30.765625 C -3.175781 -24.621094 -2.523438 -17.121094 -1.953125 -12.089844 C -1.890625 -11.222656 -1.0625 -10.554688 -0.128906 -10.707031 Z M -0.128906 -10.707031 "/></g></g></g><g fill="#bfd7ed" fill-opacity="1"><g transform="translate(183.052066, 184.429523)"><g><path d="M -2.023438 -11.039062 C -1.246094 -10.683594 -0.425781 -10.578125 0.429688 -10.714844 C 3.316406 -11.179688 6.128906 -15.078125 7.457031 -18.253906 C 7.816406 -14.550781 9.949219 -12.253906 12.679688 -12.691406 C 15.800781 -13.195312 19.78125 -17.28125 23.300781 -27.214844 C 23.328125 -27.539062 23.367188 -27.785156 23.34375 -27.941406 C 23.242188 -28.566406 22.855469 -28.984375 22.257812 -29.207031 C 22.089844 -29.261719 21.84375 -29.300781 21.53125 -29.25 C 20.90625 -29.148438 20.476562 -28.839844 20.253906 -28.242188 C 18.5625 -22.847656 14.890625 -16.332031 12.628906 -15.96875 C 11.773438 -15.828125 11.191406 -16.453125 10.851562 -18.5625 C 10.6875 -19.574219 10.5625 -20.835938 10.625 -22.445312 C 10.59375 -24.121094 10.640625 -25.8125 10.945312 -27.382812 C 11.148438 -28.613281 10.28125 -29.515625 9.113281 -29.328125 C 8.566406 -29.238281 8.148438 -28.851562 7.859375 -28.164062 C 6.566406 -24.273438 4.480469 -17.851562 1.660156 -14.996094 C 1.046875 -14.335938 0.539062 -14.015625 -0.0078125 -13.925781 C -0.867188 -13.789062 -1.355469 -14.347656 -1.570312 -15.675781 C -2.226562 -19.730469 0.917969 -29.523438 9.261719 -30.871094 C 10.121094 -31.011719 10.710938 -31.824219 10.570312 -32.683594 C 10.433594 -33.542969 9.617188 -34.128906 8.757812 -33.992188 C -0.992188 -32.417969 -5.632812 -21.503906 -4.613281 -15.183594 C -4.296875 -13.234375 -3.410156 -11.695312 -2.023438 -11.039062 Z M -2.023438 -11.039062 "/></g></g></g><g fill="#bfd7ed" fill-opacity="1"><g transform="translate(206.376804, 180.663402)"><g/></g></g><g fill="#bfd7ed" fill-opacity="1"><g transform="translate(221.978636, 178.144257)"><g><path d="M 10.046875 -16.589844 C 10.878906 -18.886719 11.191406 -21.417969 10.800781 -23.835938 C 11.683594 -23.816406 12.554688 -23.878906 13.566406 -24.042969 C 15.363281 -24.332031 17.261719 -24.960938 19.28125 -25.84375 C 20.023438 -26.207031 20.324219 -26.8125 20.183594 -27.671875 L 20.136719 -27.984375 C 19.800781 -28.570312 19.085938 -29.015625 18.386719 -28.902344 C 18.152344 -28.863281 18.242188 -28.800781 18.007812 -28.761719 C 16.300781 -27.925781 14.703125 -27.425781 13.140625 -27.175781 C 11.894531 -26.972656 10.761719 -27.03125 9.789062 -27.113281 C 8.710938 -29.820312 5.457031 -33.617188 2.554688 -32.75 C 2.296875 -32.867188 1.972656 -32.894531 1.660156 -32.847656 C 1.269531 -32.78125 0.894531 -32.640625 0.695312 -32.371094 C -1.25 -30.054688 -2.5625 -27.28125 -2.929688 -24.101562 C -3.199219 -22.296875 -3.167969 -20.621094 -2.917969 -19.058594 C -2.0625 -13.753906 1.445312 -10.878906 4.800781 -11.421875 C 6.90625 -11.761719 8.71875 -13.414062 10.046875 -16.589844 Z M 7.054688 -17.789062 C 6.183594 -15.726562 5.246094 -14.613281 4.230469 -14.449219 C 2.4375 -14.160156 0.773438 -16.535156 0.230469 -19.886719 C -0.171875 -22.382812 0.128906 -25.476562 1.675781 -28.285156 C 2.667969 -26.605469 4.675781 -25.085938 7.4375 -24.332031 C 7.488281 -24.019531 7.617188 -23.722656 7.679688 -23.332031 C 7.992188 -21.382812 7.671875 -19.410156 7.054688 -17.789062 Z M 7.054688 -17.789062 "/></g></g></g><g fill="#bfd7ed" fill-opacity="1"><g transform="translate(242.495043, 174.831582)"><g><path d="M 3.675781 -10.4375 C 7.8125 -11.105469 9.90625 -16.96875 10.941406 -20.976562 C 11.972656 -17.0625 14.105469 -14.765625 16.835938 -15.207031 C 19.644531 -15.660156 22.933594 -19.070312 25.765625 -26.8125 C 25.820312 -26.980469 25.859375 -27.226562 25.796875 -27.617188 C 25.695312 -28.242188 25.386719 -28.671875 24.789062 -28.894531 C 24.621094 -28.949219 24.375 -28.988281 23.984375 -28.925781 C 23.28125 -28.8125 22.929688 -28.515625 22.785156 -27.933594 C 20.019531 -20.28125 17.265625 -17.996094 15.917969 -18.417969 C 14.65625 -18.777344 13.996094 -21.390625 13.53125 -24.277344 C 13.039062 -27.320312 12.847656 -30.488281 12.734375 -31.671875 C 12.597656 -32.53125 11.769531 -33.199219 10.910156 -33.058594 C 10.132812 -32.933594 9.648438 -32.453125 9.539062 -31.636719 C 8.789062 -21.910156 5.761719 -13.898438 3.34375 -13.507812 C 2.171875 -13.316406 1.285156 -14.855469 0.6875 -18.039062 C 0.0976562 -21.707031 0.0390625 -26.019531 0.222656 -28.371094 C 0.214844 -29.410156 -0.277344 -29.972656 -1.328125 -30.042969 C -2.367188 -30.035156 -2.929688 -29.542969 -3 -28.492188 C -3.09375 -25.59375 -3.085938 -21.59375 -2.519531 -18.082031 C -1.777344 -13.480469 -0.0664062 -9.835938 3.675781 -10.4375 Z M 3.675781 -10.4375 "/></g></g></g><g fill="#bfd7ed" fill-opacity="1"><g transform="translate(268.47209, 170.637207)"><g><path d="M 1.507812 -10.488281 C 2.367188 -10.628906 2.863281 -11.507812 2.726562 -12.367188 C 1.800781 -16.621094 1.066406 -20.664062 0.421875 -24.640625 C -1.101562 -34.082031 -1.976562 -42.984375 -2.207031 -51.832031 L 15.894531 -55.234375 C 16.753906 -55.375 17.339844 -56.1875 17.203125 -57.046875 C 17.066406 -57.90625 16.25 -58.492188 15.3125 -58.34375 L -2.320312 -55.015625 C -2.328125 -58.535156 -2.246094 -61.992188 -2.164062 -65.445312 C -2.078125 -66.421875 -2.933594 -67.242188 -3.945312 -67.078125 C -4.726562 -66.953125 -5.210938 -66.476562 -5.304688 -65.578125 C -5.441406 -61.957031 -5.484375 -58.265625 -5.441406 -54.511719 L -19.640625 -51.738281 C -20.5 -51.601562 -21.035156 -50.953125 -20.894531 -50.09375 L -20.871094 -49.9375 C -20.730469 -49.082031 -19.917969 -48.492188 -19.058594 -48.628906 L -5.390625 -51.238281 C -5.097656 -42.480469 -4.195312 -33.421875 -2.695312 -24.136719 C -2.042969 -20.082031 -1.308594 -16.039062 -0.371094 -11.707031 C -0.230469 -10.847656 0.570312 -10.339844 1.429688 -10.476562 Z M 1.507812 -10.488281 "/></g></g></g><g fill="#bfd7ed" fill-opacity="1"><g transform="translate(283.137812, 168.269211)"><g/></g></g><g fill="#bfd7ed" fill-opacity="1"><g transform="translate(298.739645, 165.750066)"><g><path d="M 10.046875 -16.589844 C 10.878906 -18.886719 11.191406 -21.417969 10.800781 -23.835938 C 11.683594 -23.816406 12.554688 -23.878906 13.566406 -24.042969 C 15.363281 -24.332031 17.261719 -24.960938 19.28125 -25.84375 C 20.023438 -26.207031 20.324219 -26.8125 20.183594 -27.671875 L 20.136719 -27.984375 C 19.800781 -28.570312 19.085938 -29.015625 18.386719 -28.902344 C 18.152344 -28.863281 18.242188 -28.800781 18.007812 -28.761719 C 16.300781 -27.925781 14.703125 -27.425781 13.140625 -27.175781 C 11.894531 -26.972656 10.761719 -27.03125 9.789062 -27.113281 C 8.710938 -29.820312 5.457031 -33.617188 2.554688 -32.75 C 2.296875 -32.867188 1.972656 -32.894531 1.660156 -32.847656 C 1.269531 -32.78125 0.894531 -32.640625 0.695312 -32.371094 C -1.25 -30.054688 -2.5625 -27.28125 -2.929688 -24.101562 C -3.199219 -22.296875 -3.167969 -20.621094 -2.917969 -19.058594 C -2.0625 -13.753906 1.445312 -10.878906 4.800781 -11.421875 C 6.90625 -11.761719 8.71875 -13.414062 10.046875 -16.589844 Z M 7.054688 -17.789062 C 6.183594 -15.726562 5.246094 -14.613281 4.230469 -14.449219 C 2.4375 -14.160156 0.773438 -16.535156 0.230469 -19.886719 C -0.171875 -22.382812 0.128906 -25.476562 1.675781 -28.285156 C 2.667969 -26.605469 4.675781 -25.085938 7.4375 -24.332031 C 7.488281 -24.019531 7.617188 -23.722656 7.679688 -23.332031 C 7.992188 -21.382812 7.671875 -19.410156 7.054688 -17.789062 Z M 7.054688 -17.789062 "/></g></g></g><g fill="#bfd7ed" fill-opacity="1"><g transform="translate(319.256052, 162.437391)"><g><path d="M 2.964844 -0.480469 C 3.824219 -0.617188 4.347656 -1.34375 4.207031 -2.199219 L 4.183594 -2.355469 C 3.445312 -5.4375 2.671875 -9.714844 1.917969 -14.398438 C 0.746094 -21.652344 -0.265625 -29.894531 -0.308594 -36.609375 C 2.878906 -37.203125 6.101562 -37.566406 9.363281 -37.691406 C 10.3125 -37.765625 10.976562 -38.59375 10.828125 -39.527344 C 10.6875 -40.386719 10.042969 -40.921875 9.171875 -40.863281 C 5.988281 -40.75 2.84375 -40.402344 -0.277344 -39.898438 C 0.203125 -50.300781 2.847656 -54.730469 5.113281 -55.09375 C 6.4375 -55.308594 7.613281 -53.976562 7.925781 -51.546875 C 8.0625 -50.6875 8.800781 -50.085938 9.660156 -50.226562 C 10.53125 -50.285156 11.199219 -51.113281 11.058594 -51.972656 C 10.480469 -56.042969 7.636719 -58.785156 4.515625 -58.28125 C 0.773438 -57.675781 -3.007812 -52.34375 -3.453125 -39.222656 C -6.636719 -38.628906 -9.773438 -37.722656 -12.804688 -36.671875 C -13.636719 -36.378906 -14.019531 -35.757812 -13.878906 -34.898438 L -13.839844 -34.664062 C -13.546875 -33.832031 -12.9375 -33.53125 -12.078125 -33.667969 C -11.234375 -33.886719 -10.402344 -34.179688 -9.492188 -34.488281 C -7.890625 -34.984375 -5.71875 -35.417969 -3.492188 -36.015625 C -3.421875 -29.625 -2.476562 -21.773438 -1.265625 -14.285156 C -0.523438 -9.679688 0.261719 -5.324219 1.085938 -1.695312 C 1.304688 -0.851562 2.027344 -0.328125 2.886719 -0.464844 Z M 2.964844 -0.480469 "/></g></g></g><g fill="#bfd7ed" fill-opacity="1"><g transform="translate(141.798264, 264.782775)"><g><path d="M 1.507812 -10.488281 C 2.367188 -10.628906 2.863281 -11.507812 2.726562 -12.367188 C 1.800781 -16.621094 1.066406 -20.664062 0.421875 -24.640625 C -1.101562 -34.082031 -1.976562 -42.984375 -2.207031 -51.832031 L 15.894531 -55.234375 C 16.753906 -55.375 17.339844 -56.1875 17.203125 -57.046875 C 17.066406 -57.90625 16.25 -58.492188 15.3125 -58.34375 L -2.320312 -55.015625 C -2.328125 -58.535156 -2.246094 -61.992188 -2.164062 -65.445312 C -2.078125 -66.421875 -2.933594 -67.242188 -3.945312 -67.078125 C -4.726562 -66.953125 -5.210938 -66.476562 -5.304688 -65.578125 C -5.441406 -61.957031 -5.484375 -58.265625 -5.441406 -54.511719 L -19.640625 -51.738281 C -20.5 -51.601562 -21.035156 -50.953125 -20.894531 -50.09375 L -20.871094 -49.9375 C -20.730469 -49.082031 -19.917969 -48.492188 -19.058594 -48.628906 L -5.390625 -51.238281 C -5.097656 -42.480469 -4.195312 -33.421875 -2.695312 -24.136719 C -2.042969 -20.082031 -1.308594 -16.039062 -0.371094 -11.707031 C -0.230469 -10.847656 0.570312 -10.339844 1.429688 -10.476562 Z M 1.507812 -10.488281 "/></g></g></g><g fill="#bfd7ed" fill-opacity="1"><g transform="translate(156.463986, 262.414779)"><g><path d="M 1.164062 -11.632812 C 3.011719 -17.535156 6.363281 -30.484375 9.40625 -30.976562 C 10.265625 -31.113281 10.949219 -30.34375 11.847656 -28.246094 C 15.003906 -20.113281 18.921875 -16.664062 22.976562 -17.316406 C 26.644531 -17.910156 30.40625 -21.878906 33.53125 -28.785156 C 33.652344 -29.046875 33.691406 -29.292969 33.640625 -29.605469 C 33.550781 -30.152344 33.242188 -30.582031 32.722656 -30.816406 C 32.464844 -30.9375 32.140625 -30.964844 31.828125 -30.914062 C 31.28125 -30.824219 30.828125 -30.671875 30.601562 -30.074219 C 28.34375 -25.226562 24.902344 -20.269531 21.757812 -20.402344 C 20.796875 -20.40625 19.75 -20.957031 18.675781 -22.144531 C 14.570312 -26.765625 14.863281 -33.855469 9.785156 -34.078125 C 9.539062 -34.117188 9.226562 -34.066406 8.757812 -33.992188 C 4.46875 -33.300781 2.117188 -25.554688 0.453125 -20.003906 C -0.902344 -32.351562 -2.742188 -46.222656 -2.5 -55.144531 C -2.40625 -56.042969 -3.15625 -56.722656 -4.050781 -56.816406 C -4.921875 -56.757812 -5.535156 -56.097656 -5.632812 -55.203125 C -5.753906 -44.054688 -3.335938 -26.117188 -1.941406 -12.011719 C -1.855469 -10.988281 -0.894531 -10.5 -0.0351562 -10.640625 C 0.507812 -10.726562 0.9375 -11.039062 1.164062 -11.632812 Z M 1.164062 -11.632812 "/></g></g></g><g fill="#bfd7ed" fill-opacity="1"><g transform="translate(190.085927, 256.986023)"><g><path d="M 6.515625 -11.699219 C 11.585938 -12.515625 17.359375 -16.410156 21.664062 -26.949219 C 21.78125 -27.210938 21.820312 -27.457031 21.769531 -27.769531 C 21.65625 -28.46875 21.359375 -28.824219 20.777344 -28.96875 C 20.515625 -29.085938 20.191406 -29.113281 19.957031 -29.078125 C 19.414062 -28.988281 18.980469 -28.679688 18.746094 -28.160156 C 16.757812 -23.117188 14.285156 -19.597656 11.453125 -17.296875 C 9.8125 -16.070312 7.804688 -15.109375 5.699219 -14.769531 C 2.8125 -14.300781 0.117188 -15.148438 -0.425781 -18.5 C -0.488281 -18.890625 -0.472656 -19.292969 -0.484375 -19.851562 C 4.679688 -21.085938 10.226562 -25.902344 9.558594 -30.039062 C 9.191406 -32.300781 7.1875 -33.816406 4.691406 -33.414062 C 3.128906 -33.164062 1.371094 -32.160156 -0.277344 -29.972656 C -2.851562 -26.59375 -4.085938 -21.832031 -3.46875 -18.011719 C -2.800781 -13.875 0.195312 -10.675781 6.515625 -11.699219 Z M 0.0664062 -23.382812 C 1.46875 -28.09375 3.789062 -30.066406 5.273438 -30.308594 C 5.816406 -30.394531 6.15625 -30.289062 6.296875 -29.914062 C 6.976562 -28.179688 3.789062 -24.625 0.0664062 -23.382812 Z M 0.0664062 -23.382812 "/></g></g></g><g fill="#bfd7ed" fill-opacity="1"><g transform="translate(211.772466, 253.484413)"><g/></g></g><g fill="#bfd7ed" fill-opacity="1"><g transform="translate(227.374299, 250.965269)"><g><path d="M 6.863281 -1.109375 C 15.367188 -2.480469 27.398438 -12.75 25.898438 -22.03125 C 25.808594 -22.578125 25.746094 -22.96875 25.632812 -23.1875 C 38.503906 -28.230469 42.628906 -26.492188 42.160156 -29.378906 C 41.917969 -30.382812 41.285156 -30.839844 40.273438 -30.675781 C 33.992188 -29.421875 28.734375 -27.773438 24.296875 -26.015625 C 22.449219 -28.519531 19.714844 -30.078125 16.199219 -30.550781 C 20.742188 -32.644531 25.316406 -35.0625 29.359375 -38.277344 C 35.839844 -43.246094 37.660156 -48.34375 37.015625 -52.320312 C 36.726562 -54.117188 36.007812 -55.601562 34.765625 -56.839844 C 31.019531 -60.71875 26.0625 -61.679688 20.757812 -60.824219 C 8.117188 -58.78125 -5.949219 -46.265625 -5.78125 -35.804688 C -5.722656 -34.9375 -5.0625 -34.320312 -4.164062 -34.226562 C -3.292969 -34.285156 -2.679688 -34.945312 -2.585938 -35.84375 C -2.699219 -44.46875 10.183594 -55.914062 21.257812 -57.703125 C 25.628906 -58.40625 29.675781 -57.621094 32.480469 -54.632812 C 33.257812 -53.796875 33.730469 -52.832031 33.894531 -51.816406 C 34.488281 -48.152344 31.636719 -44.007812 27.4375 -40.769531 C 22.960938 -37.246094 18.078125 -34.777344 12.988281 -32.59375 C 12.855469 -37.375 12.941406 -41.792969 13.257812 -45.285156 C 13.355469 -46.179688 12.75 -46.960938 11.851562 -47.058594 C 10.957031 -47.152344 10.1875 -46.46875 10.089844 -45.574219 C 9.773438 -41.597656 9.71875 -36.46875 9.835938 -31.285156 C 9.09375 -30.925781 8.339844 -30.640625 7.585938 -30.359375 L 5.320312 -29.515625 C 4.566406 -29.234375 4.25 -28.703125 4.390625 -27.84375 L 4.425781 -27.609375 C 4.617188 -26.917969 5.34375 -26.398438 6.046875 -26.511719 L 6.203125 -26.535156 C 7.449219 -26.738281 8.683594 -27.015625 9.933594 -27.21875 L 10.460938 -18.5 C 3.132812 -12.832031 0.882812 -7.90625 1.425781 -4.550781 C 1.828125 -2.054688 3.976562 -0.640625 6.863281 -1.109375 Z M 11.4375 -6.007812 C 9.523438 -4.980469 8.011719 -4.414062 6.839844 -4.226562 C 5.4375 -4 4.660156 -4.355469 4.507812 -5.289062 C 4.195312 -7.242188 6.878906 -11.4375 10.832031 -14.714844 L 10.957031 -13.9375 C 11.121094 -12.921875 11.675781 -12.449219 12.703125 -12.535156 L 12.78125 -12.550781 C 13.640625 -12.6875 14.164062 -13.414062 14.101562 -14.285156 C 13.964844 -15.140625 13.902344 -16.011719 13.832031 -16.960938 C 16.058594 -18.523438 18.914062 -20.183594 22.703125 -21.996094 C 24.101562 -15.816406 16.945312 -9.058594 11.4375 -6.007812 Z M 13.078125 -27.566406 C 16.183594 -27.667969 19.257812 -26.960938 21.210938 -24.796875 C 18.164062 -23.34375 15.582031 -21.964844 13.484375 -20.585938 Z M 13.078125 -27.566406 "/></g></g></g><g fill="#bfd7ed" fill-opacity="1"><g transform="translate(270.825388, 243.949452)"><g><path d="M 10.046875 -16.589844 C 10.878906 -18.886719 11.191406 -21.417969 10.800781 -23.835938 C 11.683594 -23.816406 12.554688 -23.878906 13.566406 -24.042969 C 15.363281 -24.332031 17.261719 -24.960938 19.28125 -25.84375 C 20.023438 -26.207031 20.324219 -26.8125 20.183594 -27.671875 L 20.136719 -27.984375 C 19.800781 -28.570312 19.085938 -29.015625 18.386719 -28.902344 C 18.152344 -28.863281 18.242188 -28.800781 18.007812 -28.761719 C 16.300781 -27.925781 14.703125 -27.425781 13.140625 -27.175781 C 11.894531 -26.972656 10.761719 -27.03125 9.789062 -27.113281 C 8.710938 -29.820312 5.457031 -33.617188 2.554688 -32.75 C 2.296875 -32.867188 1.972656 -32.894531 1.660156 -32.847656 C 1.269531 -32.78125 0.894531 -32.640625 0.695312 -32.371094 C -1.25 -30.054688 -2.5625 -27.28125 -2.929688 -24.101562 C -3.199219 -22.296875 -3.167969 -20.621094 -2.917969 -19.058594 C -2.0625 -13.753906 1.445312 -10.878906 4.800781 -11.421875 C 6.90625 -11.761719 8.71875 -13.414062 10.046875 -16.589844 Z M 7.054688 -17.789062 C 6.183594 -15.726562 5.246094 -14.613281 4.230469 -14.449219 C 2.4375 -14.160156 0.773438 -16.535156 0.230469 -19.886719 C -0.171875 -22.382812 0.128906 -25.476562 1.675781 -28.285156 C 2.667969 -26.605469 4.675781 -25.085938 7.4375 -24.332031 C 7.488281 -24.019531 7.617188 -23.722656 7.679688 -23.332031 C 7.992188 -21.382812 7.671875 -19.410156 7.054688 -17.789062 Z M 7.054688 -17.789062 "/></g></g></g><g fill="#bfd7ed" fill-opacity="1"><g transform="translate(291.341795, 240.636778)"><g><path d="M -3.738281 -11.242188 C -3.308594 -11.070312 -2.984375 -11.042969 -2.75 -11.082031 C -2.203125 -11.171875 -1.851562 -11.46875 -1.601562 -11.90625 C -0.566406 -13.917969 0.625 -15.46875 1.867188 -17.191406 C 4.796875 -13.421875 8.011719 -11.859375 11.132812 -12.363281 C 13.785156 -12.792969 16.300781 -14.558594 18.589844 -17.730469 C 21.441406 -21.390625 23.175781 -25.996094 24.003906 -27.328125 C 24.199219 -27.601562 24.226562 -27.925781 24.164062 -28.316406 C 24.074219 -28.859375 23.777344 -29.214844 23.339844 -29.460938 C 23.066406 -29.660156 22.742188 -29.6875 22.351562 -29.625 C 21.804688 -29.535156 21.441406 -29.316406 21.191406 -28.875 C 18.671875 -24.148438 15.308594 -16.238281 10.78125 -15.507812 C 8.675781 -15.167969 6.332031 -16.3125 3.738281 -19.972656 C 5.714844 -23.09375 7.890625 -26.96875 10.1875 -34.0625 C 10.308594 -34.320312 10.347656 -34.570312 10.296875 -34.878906 C 10.15625 -35.738281 9.433594 -36.261719 8.496094 -36.109375 C 7.875 -36.011719 7.457031 -35.621094 7.230469 -35.027344 C 5.359375 -29.28125 3.546875 -25.625 1.832031 -22.867188 C 0.582031 -25.148438 -0.742188 -27.894531 -1.984375 -31.136719 C -2.332031 -31.800781 -3.03125 -32.167969 -3.734375 -32.054688 L -4.046875 -32.003906 C -4.789062 -31.644531 -5.089844 -31.035156 -4.964844 -30.253906 L -4.914062 -29.941406 C -3.3125 -25.960938 -1.730469 -22.613281 -0.105469 -19.992188 C -1.597656 -17.832031 -2.996094 -16.085938 -4.402344 -13.378906 C -4.585938 -13.027344 -4.613281 -12.703125 -4.5625 -12.390625 C -4.472656 -11.84375 -4.175781 -11.492188 -3.738281 -11.242188 Z M -3.738281 -11.242188 "/></g></g></g><path stroke-linecap="butt" transform="matrix(0.000000000000000046, -0.749011, 0.75, 0.000000000000000046, 74.292415, 291.305489)" fill="none" stroke-linejoin="miter" d="M 0.00106991 2.000739 L 284.386512 2.000739 " stroke="#bfd7ed" stroke-width="4" stroke-opacity="1" stroke-miterlimit="4"/><path stroke-linecap="butt" transform="matrix(0.749673, 0, 0, 0.75, 75.647212, 288.308945)" fill="none" stroke-linejoin="miter" d="M 0.00163427 1.999532 L 287.131857 1.999532 " stroke="#bfd7ed" stroke-width="4" stroke-opacity="1" stroke-miterlimit="4"/><path stroke-linecap="butt" transform="matrix(0.750122, 0, 0, 0.75, 75.342115, 78.019507)" fill="none" stroke-linejoin="miter" d="M 0.00217998 2.000033 L 287.96573 2.000033 " stroke="#bfd7ed" stroke-width="4" stroke-opacity="1" stroke-miterlimit="4"/><path stroke-linecap="butt" transform="matrix(0.000000000000000046, 0.757637, -0.75, 0.000000000000000046, 292.493803, 268.290978)" fill="none" stroke-linejoin="miter" d="M -0.00252876 2.002154 L 30.695284 2.002154 " stroke="#bfd7ed" stroke-width="4" stroke-opacity="1" stroke-miterlimit="4"/><path stroke-linecap="butt" transform="matrix(0.000000000000000046, 0.757637, -0.75, 0.000000000000000046, 292.493803, 78.02188)" fill="none" stroke-linejoin="miter" d="M 0.0020551 2.002154 L 30.694712 2.002154 " stroke="#bfd7ed" stroke-width="4" stroke-opacity="1" stroke-miterlimit="4"/></svg>